<svg width="76" height="50" viewBox="0 0 76 50" fill="none" xmlns="http://www.w3.org/2000/svg">
<g id="svg-f4f2">
<path id="Vector" d="M63.175 14.056C56.5725 18.808 50.92 18.808 44.27 14.056C39.9475 10.984 36.29 10.984 31.9675 14.056C25.4125 18.76 20.045 18.76 13.49 14.056C9.12 10.936 6.175 10.936 1.805 14.056L0 11.752C5.32 7.91204 9.785 7.76804 15.295 11.752C20.52 15.496 24.32 15.928 30.1625 11.752C35.6725 7.76804 40.8025 7.96004 46.075 11.752C51.49 15.688 55.7175 15.832 61.37 11.752C66.88 7.76804 70.49 7.76804 76 11.752L74.195 14.056C69.7775 10.888 67.5925 10.888 63.175 14.056ZM63.175 6.28004C56.5725 11.032 50.92 11.032 44.27 6.28004C39.9475 3.20804 36.29 3.20804 31.9675 6.28004C25.4125 10.984 20.045 10.984 13.49 6.28004C9.12 3.16004 6.175 3.16004 1.805 6.28004L0 3.97604C5.32 0.136037 9.785 -0.00796282 15.295 3.97604C20.52 7.72004 24.32 8.15204 30.1625 3.97604C35.6725 -0.00796282 40.8025 0.184037 46.075 3.97604C51.49 7.91204 55.7175 8.05604 61.37 3.97604C66.88 -0.00796282 70.49 -0.00796282 76 3.97604L74.195 6.28004C69.7775 3.11204 67.5925 3.11204 63.175 6.28004ZM15.295 19.624C20.52 23.368 24.32 23.8 30.1625 19.624C35.6725 15.64 40.8025 15.832 46.075 19.624C51.49 23.56 55.7175 23.704 61.37 19.624C66.88 15.64 70.49 15.64 76 19.624L74.195 21.928C69.7775 18.76 67.5925 18.76 63.1275 21.928C56.525 26.68 50.8725 26.68 44.2225 21.928C39.9 18.856 36.2425 18.856 31.92 21.928C25.365 26.632 19.9975 26.632 13.4425 21.928C9.0725 18.808 6.1275 18.808 1.7575 21.928L0 19.624C5.32 15.784 9.785 15.64 15.295 19.624ZM63.175 37.576C56.5725 42.328 50.92 42.328 44.27 37.576C39.9475 34.504 36.29 34.504 31.9675 37.576C25.4125 42.28 20.045 42.28 13.49 37.576C9.12 34.456 6.175 34.456 1.805 37.576L0 35.272C5.32 31.432 9.785 31.288 15.295 35.272C20.52 39.016 24.32 39.448 30.1625 35.272C35.6725 31.288 40.8025 31.48 46.075 35.272C51.49 39.208 55.7175 39.352 61.37 35.272C66.88 31.288 70.49 31.288 76 35.272L74.195 37.576C69.7775 34.408 67.5925 34.408 63.175 37.576ZM63.175 29.8C56.5725 34.552 50.92 34.552 44.27 29.8C39.9475 26.728 36.29 26.728 31.9675 29.8C25.4125 34.504 20.045 34.504 13.49 29.8C9.12 26.68 6.175 26.68 1.805 29.8L0 27.496C5.32 23.656 9.785 23.512 15.295 27.496C20.52 31.24 24.32 31.672 30.1625 27.496C35.6725 23.512 40.8025 23.704 46.075 27.496C51.49 31.432 55.7175 31.576 61.37 27.496C66.88 23.512 70.49 23.512 76 27.496L74.195 29.8C69.7775 26.632 67.5925 26.632 63.175 29.8ZM15.295 43.144C20.52 46.888 24.32 47.32 30.1625 43.144C35.6725 39.16 40.8025 39.352 46.075 43.144C51.49 47.08 55.7175 47.224 61.37 43.144C66.88 39.16 70.49 39.16 76 43.144L74.195 45.448C69.7775 42.28 67.5925 42.28 63.1275 45.448C56.525 50.2 50.8725 50.2 44.2225 45.448C39.9 42.376 36.2425 42.376 31.92 45.448C25.365 50.152 19.9975 50.152 13.4425 45.448C9.0725 42.328 6.1275 42.328 1.7575 45.448L0 43.144C5.32 39.304 9.785 39.16 15.295 43.144Z" fill="#66B821"/>
</g>
</svg>
