<svg width="212" height="152" viewBox="0 0 212 152" fill="none" xmlns="http://www.w3.org/2000/svg">
<g id="Group 46">
<circle id="Ellipse 20" cx="1" cy="1" r="1" fill="#66B821"/>
<circle id="Ellipse 21" cx="11" cy="1" r="1" fill="#66B821"/>
<circle id="Ellipse 22" cx="21" cy="1" r="1" fill="#66B821"/>
<circle id="Ellipse 23" cx="31" cy="1" r="1" fill="#66B821"/>
<circle id="Ellipse 24" cx="41" cy="1" r="1" fill="#66B821"/>
<circle id="Ellipse 25" cx="51" cy="1" r="1" fill="#66B821"/>
<circle id="Ellipse 26" cx="61" cy="1" r="1" fill="#66B821"/>
<circle id="Ellipse 27" cx="71" cy="1" r="1" fill="#66B821"/>
<circle id="Ellipse 28" cx="81" cy="1" r="1" fill="#66B821"/>
<circle id="Ellipse 29" cx="91" cy="1" r="1" fill="#66B821"/>
<circle id="Ellipse 30" cx="101" cy="1" r="1" fill="#66B821"/>
<circle id="Ellipse 31" cx="111" cy="1" r="1" fill="#66B821"/>
<circle id="Ellipse 32" cx="121" cy="1" r="1" fill="#66B821"/>
<circle id="Ellipse 33" cx="131" cy="1" r="1" fill="#66B821"/>
<circle id="Ellipse 34" cx="141" cy="1" r="1" fill="#66B821"/>
<circle id="Ellipse 35" cx="151" cy="1" r="1" fill="#66B821"/>
<circle id="Ellipse 36" cx="161" cy="1" r="1" fill="#66B821"/>
<circle id="Ellipse 37" cx="171" cy="1" r="1" fill="#66B821"/>
<circle id="Ellipse 38" cx="181" cy="1" r="1" fill="#66B821"/>
<circle id="Ellipse 39" cx="191" cy="1" r="1" fill="#66B821"/>
<circle id="Ellipse 40" cx="201" cy="1" r="1" fill="#66B821"/>
<circle id="Ellipse 41" cx="211" cy="1" r="1" fill="#66B821"/>
<circle id="Ellipse 20_2" cx="1" cy="11" r="1" fill="#66B821"/>
<circle id="Ellipse 21_2" cx="11" cy="11" r="1" fill="#66B821"/>
<circle id="Ellipse 22_2" cx="21" cy="11" r="1" fill="#66B821"/>
<circle id="Ellipse 23_2" cx="31" cy="11" r="1" fill="#66B821"/>
<circle id="Ellipse 24_2" cx="41" cy="11" r="1" fill="#66B821"/>
<circle id="Ellipse 25_2" cx="51" cy="11" r="1" fill="#66B821"/>
<circle id="Ellipse 26_2" cx="61" cy="11" r="1" fill="#66B821"/>
<circle id="Ellipse 27_2" cx="71" cy="11" r="1" fill="#66B821"/>
<circle id="Ellipse 28_2" cx="81" cy="11" r="1" fill="#66B821"/>
<circle id="Ellipse 29_2" cx="91" cy="11" r="1" fill="#66B821"/>
<circle id="Ellipse 30_2" cx="101" cy="11" r="1" fill="#66B821"/>
<circle id="Ellipse 31_2" cx="111" cy="11" r="1" fill="#66B821"/>
<circle id="Ellipse 32_2" cx="121" cy="11" r="1" fill="#66B821"/>
<circle id="Ellipse 33_2" cx="131" cy="11" r="1" fill="#66B821"/>
<circle id="Ellipse 34_2" cx="141" cy="11" r="1" fill="#66B821"/>
<circle id="Ellipse 35_2" cx="151" cy="11" r="1" fill="#66B821"/>
<circle id="Ellipse 36_2" cx="161" cy="11" r="1" fill="#66B821"/>
<circle id="Ellipse 37_2" cx="171" cy="11" r="1" fill="#66B821"/>
<circle id="Ellipse 38_2" cx="181" cy="11" r="1" fill="#66B821"/>
<circle id="Ellipse 39_2" cx="191" cy="11" r="1" fill="#66B821"/>
<circle id="Ellipse 40_2" cx="201" cy="11" r="1" fill="#66B821"/>
<circle id="Ellipse 41_2" cx="211" cy="11" r="1" fill="#66B821"/>
<circle id="Ellipse 20_3" cx="1" cy="21" r="1" fill="#66B821"/>
<circle id="Ellipse 21_3" cx="11" cy="21" r="1" fill="#66B821"/>
<circle id="Ellipse 22_3" cx="21" cy="21" r="1" fill="#66B821"/>
<circle id="Ellipse 23_3" cx="31" cy="21" r="1" fill="#66B821"/>
<circle id="Ellipse 24_3" cx="41" cy="21" r="1" fill="#66B821"/>
<circle id="Ellipse 25_3" cx="51" cy="21" r="1" fill="#66B821"/>
<circle id="Ellipse 26_3" cx="61" cy="21" r="1" fill="#66B821"/>
<circle id="Ellipse 27_3" cx="71" cy="21" r="1" fill="#66B821"/>
<circle id="Ellipse 28_3" cx="81" cy="21" r="1" fill="#66B821"/>
<circle id="Ellipse 29_3" cx="91" cy="21" r="1" fill="#66B821"/>
<circle id="Ellipse 30_3" cx="101" cy="21" r="1" fill="#66B821"/>
<circle id="Ellipse 31_3" cx="111" cy="21" r="1" fill="#66B821"/>
<circle id="Ellipse 32_3" cx="121" cy="21" r="1" fill="#66B821"/>
<circle id="Ellipse 33_3" cx="131" cy="21" r="1" fill="#66B821"/>
<circle id="Ellipse 34_3" cx="141" cy="21" r="1" fill="#66B821"/>
<circle id="Ellipse 35_3" cx="151" cy="21" r="1" fill="#66B821"/>
<circle id="Ellipse 36_3" cx="161" cy="21" r="1" fill="#66B821"/>
<circle id="Ellipse 37_3" cx="171" cy="21" r="1" fill="#66B821"/>
<circle id="Ellipse 38_3" cx="181" cy="21" r="1" fill="#66B821"/>
<circle id="Ellipse 39_3" cx="191" cy="21" r="1" fill="#66B821"/>
<circle id="Ellipse 40_3" cx="201" cy="21" r="1" fill="#66B821"/>
<circle id="Ellipse 41_3" cx="211" cy="21" r="1" fill="#66B821"/>
<circle id="Ellipse 20_4" cx="1" cy="31" r="1" fill="#66B821"/>
<circle id="Ellipse 21_4" cx="11" cy="31" r="1" fill="#66B821"/>
<circle id="Ellipse 22_4" cx="21" cy="31" r="1" fill="#66B821"/>
<circle id="Ellipse 23_4" cx="31" cy="31" r="1" fill="#66B821"/>
<circle id="Ellipse 24_4" cx="41" cy="31" r="1" fill="#66B821"/>
<circle id="Ellipse 25_4" cx="51" cy="31" r="1" fill="#66B821"/>
<circle id="Ellipse 26_4" cx="61" cy="31" r="1" fill="#66B821"/>
<circle id="Ellipse 27_4" cx="71" cy="31" r="1" fill="#66B821"/>
<circle id="Ellipse 28_4" cx="81" cy="31" r="1" fill="#66B821"/>
<circle id="Ellipse 29_4" cx="91" cy="31" r="1" fill="#66B821"/>
<circle id="Ellipse 30_4" cx="101" cy="31" r="1" fill="#66B821"/>
<circle id="Ellipse 31_4" cx="111" cy="31" r="1" fill="#66B821"/>
<circle id="Ellipse 32_4" cx="121" cy="31" r="1" fill="#66B821"/>
<circle id="Ellipse 33_4" cx="131" cy="31" r="1" fill="#66B821"/>
<circle id="Ellipse 34_4" cx="141" cy="31" r="1" fill="#66B821"/>
<circle id="Ellipse 35_4" cx="151" cy="31" r="1" fill="#66B821"/>
<circle id="Ellipse 36_4" cx="161" cy="31" r="1" fill="#66B821"/>
<circle id="Ellipse 37_4" cx="171" cy="31" r="1" fill="#66B821"/>
<circle id="Ellipse 38_4" cx="181" cy="31" r="1" fill="#66B821"/>
<circle id="Ellipse 39_4" cx="191" cy="31" r="1" fill="#66B821"/>
<circle id="Ellipse 40_4" cx="201" cy="31" r="1" fill="#66B821"/>
<circle id="Ellipse 41_4" cx="211" cy="31" r="1" fill="#66B821"/>
<circle id="Ellipse 20_5" cx="1" cy="41" r="1" fill="#66B821"/>
<circle id="Ellipse 21_5" cx="11" cy="41" r="1" fill="#66B821"/>
<circle id="Ellipse 22_5" cx="21" cy="41" r="1" fill="#66B821"/>
<circle id="Ellipse 23_5" cx="31" cy="41" r="1" fill="#66B821"/>
<circle id="Ellipse 24_5" cx="41" cy="41" r="1" fill="#66B821"/>
<circle id="Ellipse 25_5" cx="51" cy="41" r="1" fill="#66B821"/>
<circle id="Ellipse 26_5" cx="61" cy="41" r="1" fill="#66B821"/>
<circle id="Ellipse 27_5" cx="71" cy="41" r="1" fill="#66B821"/>
<circle id="Ellipse 28_5" cx="81" cy="41" r="1" fill="#66B821"/>
<circle id="Ellipse 29_5" cx="91" cy="41" r="1" fill="#66B821"/>
<circle id="Ellipse 30_5" cx="101" cy="41" r="1" fill="#66B821"/>
<circle id="Ellipse 31_5" cx="111" cy="41" r="1" fill="#66B821"/>
<circle id="Ellipse 32_5" cx="121" cy="41" r="1" fill="#66B821"/>
<circle id="Ellipse 33_5" cx="131" cy="41" r="1" fill="#66B821"/>
<circle id="Ellipse 34_5" cx="141" cy="41" r="1" fill="#66B821"/>
<circle id="Ellipse 35_5" cx="151" cy="41" r="1" fill="#66B821"/>
<circle id="Ellipse 36_5" cx="161" cy="41" r="1" fill="#66B821"/>
<circle id="Ellipse 37_5" cx="171" cy="41" r="1" fill="#66B821"/>
<circle id="Ellipse 38_5" cx="181" cy="41" r="1" fill="#66B821"/>
<circle id="Ellipse 39_5" cx="191" cy="41" r="1" fill="#66B821"/>
<circle id="Ellipse 40_5" cx="201" cy="41" r="1" fill="#66B821"/>
<circle id="Ellipse 41_5" cx="211" cy="41" r="1" fill="#66B821"/>
<circle id="Ellipse 20_6" cx="1" cy="51" r="1" fill="#66B821"/>
<circle id="Ellipse 21_6" cx="11" cy="51" r="1" fill="#66B821"/>
<circle id="Ellipse 22_6" cx="21" cy="51" r="1" fill="#66B821"/>
<circle id="Ellipse 23_6" cx="31" cy="51" r="1" fill="#66B821"/>
<circle id="Ellipse 24_6" cx="41" cy="51" r="1" fill="#66B821"/>
<circle id="Ellipse 25_6" cx="51" cy="51" r="1" fill="#66B821"/>
<circle id="Ellipse 26_6" cx="61" cy="51" r="1" fill="#66B821"/>
<circle id="Ellipse 27_6" cx="71" cy="51" r="1" fill="#66B821"/>
<circle id="Ellipse 28_6" cx="81" cy="51" r="1" fill="#66B821"/>
<circle id="Ellipse 29_6" cx="91" cy="51" r="1" fill="#66B821"/>
<circle id="Ellipse 30_6" cx="101" cy="51" r="1" fill="#66B821"/>
<circle id="Ellipse 31_6" cx="111" cy="51" r="1" fill="#66B821"/>
<circle id="Ellipse 32_6" cx="121" cy="51" r="1" fill="#66B821"/>
<circle id="Ellipse 33_6" cx="131" cy="51" r="1" fill="#66B821"/>
<circle id="Ellipse 34_6" cx="141" cy="51" r="1" fill="#66B821"/>
<circle id="Ellipse 35_6" cx="151" cy="51" r="1" fill="#66B821"/>
<circle id="Ellipse 36_6" cx="161" cy="51" r="1" fill="#66B821"/>
<circle id="Ellipse 37_6" cx="171" cy="51" r="1" fill="#66B821"/>
<circle id="Ellipse 38_6" cx="181" cy="51" r="1" fill="#66B821"/>
<circle id="Ellipse 39_6" cx="191" cy="51" r="1" fill="#66B821"/>
<circle id="Ellipse 40_6" cx="201" cy="51" r="1" fill="#66B821"/>
<circle id="Ellipse 41_6" cx="211" cy="51" r="1" fill="#66B821"/>
<circle id="Ellipse 20_7" cx="1" cy="61" r="1" fill="#66B821"/>
<circle id="Ellipse 21_7" cx="11" cy="61" r="1" fill="#66B821"/>
<circle id="Ellipse 22_7" cx="21" cy="61" r="1" fill="#66B821"/>
<circle id="Ellipse 23_7" cx="31" cy="61" r="1" fill="#66B821"/>
<circle id="Ellipse 24_7" cx="41" cy="61" r="1" fill="#66B821"/>
<circle id="Ellipse 25_7" cx="51" cy="61" r="1" fill="#66B821"/>
<circle id="Ellipse 26_7" cx="61" cy="61" r="1" fill="#66B821"/>
<circle id="Ellipse 27_7" cx="71" cy="61" r="1" fill="#66B821"/>
<circle id="Ellipse 28_7" cx="81" cy="61" r="1" fill="#66B821"/>
<circle id="Ellipse 29_7" cx="91" cy="61" r="1" fill="#66B821"/>
<circle id="Ellipse 30_7" cx="101" cy="61" r="1" fill="#66B821"/>
<circle id="Ellipse 31_7" cx="111" cy="61" r="1" fill="#66B821"/>
<circle id="Ellipse 32_7" cx="121" cy="61" r="1" fill="#66B821"/>
<circle id="Ellipse 33_7" cx="131" cy="61" r="1" fill="#66B821"/>
<circle id="Ellipse 34_7" cx="141" cy="61" r="1" fill="#66B821"/>
<circle id="Ellipse 35_7" cx="151" cy="61" r="1" fill="#66B821"/>
<circle id="Ellipse 36_7" cx="161" cy="61" r="1" fill="#66B821"/>
<circle id="Ellipse 37_7" cx="171" cy="61" r="1" fill="#66B821"/>
<circle id="Ellipse 38_7" cx="181" cy="61" r="1" fill="#66B821"/>
<circle id="Ellipse 39_7" cx="191" cy="61" r="1" fill="#66B821"/>
<circle id="Ellipse 40_7" cx="201" cy="61" r="1" fill="#66B821"/>
<circle id="Ellipse 41_7" cx="211" cy="61" r="1" fill="#66B821"/>
<circle id="Ellipse 20_8" cx="1" cy="71" r="1" fill="#66B821"/>
<circle id="Ellipse 21_8" cx="11" cy="71" r="1" fill="#66B821"/>
<circle id="Ellipse 22_8" cx="21" cy="71" r="1" fill="#66B821"/>
<circle id="Ellipse 23_8" cx="31" cy="71" r="1" fill="#66B821"/>
<circle id="Ellipse 24_8" cx="41" cy="71" r="1" fill="#66B821"/>
<circle id="Ellipse 25_8" cx="51" cy="71" r="1" fill="#66B821"/>
<circle id="Ellipse 26_8" cx="61" cy="71" r="1" fill="#66B821"/>
<circle id="Ellipse 27_8" cx="71" cy="71" r="1" fill="#66B821"/>
<circle id="Ellipse 28_8" cx="81" cy="71" r="1" fill="#66B821"/>
<circle id="Ellipse 29_8" cx="91" cy="71" r="1" fill="#66B821"/>
<circle id="Ellipse 30_8" cx="101" cy="71" r="1" fill="#66B821"/>
<circle id="Ellipse 31_8" cx="111" cy="71" r="1" fill="#66B821"/>
<circle id="Ellipse 32_8" cx="121" cy="71" r="1" fill="#66B821"/>
<circle id="Ellipse 33_8" cx="131" cy="71" r="1" fill="#66B821"/>
<circle id="Ellipse 34_8" cx="141" cy="71" r="1" fill="#66B821"/>
<circle id="Ellipse 35_8" cx="151" cy="71" r="1" fill="#66B821"/>
<circle id="Ellipse 36_8" cx="161" cy="71" r="1" fill="#66B821"/>
<circle id="Ellipse 37_8" cx="171" cy="71" r="1" fill="#66B821"/>
<circle id="Ellipse 38_8" cx="181" cy="71" r="1" fill="#66B821"/>
<circle id="Ellipse 39_8" cx="191" cy="71" r="1" fill="#66B821"/>
<circle id="Ellipse 40_8" cx="201" cy="71" r="1" fill="#66B821"/>
<circle id="Ellipse 41_8" cx="211" cy="71" r="1" fill="#66B821"/>
<circle id="Ellipse 20_9" cx="1" cy="81" r="1" fill="#66B821"/>
<circle id="Ellipse 21_9" cx="11" cy="81" r="1" fill="#66B821"/>
<circle id="Ellipse 22_9" cx="21" cy="81" r="1" fill="#66B821"/>
<circle id="Ellipse 23_9" cx="31" cy="81" r="1" fill="#66B821"/>
<circle id="Ellipse 24_9" cx="41" cy="81" r="1" fill="#66B821"/>
<circle id="Ellipse 25_9" cx="51" cy="81" r="1" fill="#66B821"/>
<circle id="Ellipse 26_9" cx="61" cy="81" r="1" fill="#66B821"/>
<circle id="Ellipse 27_9" cx="71" cy="81" r="1" fill="#66B821"/>
<circle id="Ellipse 28_9" cx="81" cy="81" r="1" fill="#66B821"/>
<circle id="Ellipse 29_9" cx="91" cy="81" r="1" fill="#66B821"/>
<circle id="Ellipse 30_9" cx="101" cy="81" r="1" fill="#66B821"/>
<circle id="Ellipse 31_9" cx="111" cy="81" r="1" fill="#66B821"/>
<circle id="Ellipse 32_9" cx="121" cy="81" r="1" fill="#66B821"/>
<circle id="Ellipse 33_9" cx="131" cy="81" r="1" fill="#66B821"/>
<circle id="Ellipse 34_9" cx="141" cy="81" r="1" fill="#66B821"/>
<circle id="Ellipse 35_9" cx="151" cy="81" r="1" fill="#66B821"/>
<circle id="Ellipse 36_9" cx="161" cy="81" r="1" fill="#66B821"/>
<circle id="Ellipse 37_9" cx="171" cy="81" r="1" fill="#66B821"/>
<circle id="Ellipse 38_9" cx="181" cy="81" r="1" fill="#66B821"/>
<circle id="Ellipse 39_9" cx="191" cy="81" r="1" fill="#66B821"/>
<circle id="Ellipse 40_9" cx="201" cy="81" r="1" fill="#66B821"/>
<circle id="Ellipse 41_9" cx="211" cy="81" r="1" fill="#66B821"/>
<circle id="Ellipse 20_10" cx="1" cy="91" r="1" fill="#66B821"/>
<circle id="Ellipse 21_10" cx="11" cy="91" r="1" fill="#66B821"/>
<circle id="Ellipse 22_10" cx="21" cy="91" r="1" fill="#66B821"/>
<circle id="Ellipse 23_10" cx="31" cy="91" r="1" fill="#66B821"/>
<circle id="Ellipse 24_10" cx="41" cy="91" r="1" fill="#66B821"/>
<circle id="Ellipse 25_10" cx="51" cy="91" r="1" fill="#66B821"/>
<circle id="Ellipse 26_10" cx="61" cy="91" r="1" fill="#66B821"/>
<circle id="Ellipse 27_10" cx="71" cy="91" r="1" fill="#66B821"/>
<circle id="Ellipse 28_10" cx="81" cy="91" r="1" fill="#66B821"/>
<circle id="Ellipse 29_10" cx="91" cy="91" r="1" fill="#66B821"/>
<circle id="Ellipse 30_10" cx="101" cy="91" r="1" fill="#66B821"/>
<circle id="Ellipse 31_10" cx="111" cy="91" r="1" fill="#66B821"/>
<circle id="Ellipse 32_10" cx="121" cy="91" r="1" fill="#66B821"/>
<circle id="Ellipse 33_10" cx="131" cy="91" r="1" fill="#66B821"/>
<circle id="Ellipse 34_10" cx="141" cy="91" r="1" fill="#66B821"/>
<circle id="Ellipse 35_10" cx="151" cy="91" r="1" fill="#66B821"/>
<circle id="Ellipse 36_10" cx="161" cy="91" r="1" fill="#66B821"/>
<circle id="Ellipse 37_10" cx="171" cy="91" r="1" fill="#66B821"/>
<circle id="Ellipse 38_10" cx="181" cy="91" r="1" fill="#66B821"/>
<circle id="Ellipse 39_10" cx="191" cy="91" r="1" fill="#66B821"/>
<circle id="Ellipse 40_10" cx="201" cy="91" r="1" fill="#66B821"/>
<circle id="Ellipse 41_10" cx="211" cy="91" r="1" fill="#66B821"/>
<circle id="Ellipse 20_11" cx="1" cy="101" r="1" fill="#66B821"/>
<circle id="Ellipse 21_11" cx="11" cy="101" r="1" fill="#66B821"/>
<circle id="Ellipse 22_11" cx="21" cy="101" r="1" fill="#66B821"/>
<circle id="Ellipse 23_11" cx="31" cy="101" r="1" fill="#66B821"/>
<circle id="Ellipse 24_11" cx="41" cy="101" r="1" fill="#66B821"/>
<circle id="Ellipse 25_11" cx="51" cy="101" r="1" fill="#66B821"/>
<circle id="Ellipse 26_11" cx="61" cy="101" r="1" fill="#66B821"/>
<circle id="Ellipse 27_11" cx="71" cy="101" r="1" fill="#66B821"/>
<circle id="Ellipse 28_11" cx="81" cy="101" r="1" fill="#66B821"/>
<circle id="Ellipse 29_11" cx="91" cy="101" r="1" fill="#66B821"/>
<circle id="Ellipse 30_11" cx="101" cy="101" r="1" fill="#66B821"/>
<circle id="Ellipse 31_11" cx="111" cy="101" r="1" fill="#66B821"/>
<circle id="Ellipse 32_11" cx="121" cy="101" r="1" fill="#66B821"/>
<circle id="Ellipse 33_11" cx="131" cy="101" r="1" fill="#66B821"/>
<circle id="Ellipse 34_11" cx="141" cy="101" r="1" fill="#66B821"/>
<circle id="Ellipse 35_11" cx="151" cy="101" r="1" fill="#66B821"/>
<circle id="Ellipse 36_11" cx="161" cy="101" r="1" fill="#66B821"/>
<circle id="Ellipse 37_11" cx="171" cy="101" r="1" fill="#66B821"/>
<circle id="Ellipse 38_11" cx="181" cy="101" r="1" fill="#66B821"/>
<circle id="Ellipse 39_11" cx="191" cy="101" r="1" fill="#66B821"/>
<circle id="Ellipse 40_11" cx="201" cy="101" r="1" fill="#66B821"/>
<circle id="Ellipse 41_11" cx="211" cy="101" r="1" fill="#66B821"/>
<circle id="Ellipse 20_12" cx="1" cy="111" r="1" fill="#66B821"/>
<circle id="Ellipse 21_12" cx="11" cy="111" r="1" fill="#66B821"/>
<circle id="Ellipse 22_12" cx="21" cy="111" r="1" fill="#66B821"/>
<circle id="Ellipse 23_12" cx="31" cy="111" r="1" fill="#66B821"/>
<circle id="Ellipse 24_12" cx="41" cy="111" r="1" fill="#66B821"/>
<circle id="Ellipse 25_12" cx="51" cy="111" r="1" fill="#66B821"/>
<circle id="Ellipse 26_12" cx="61" cy="111" r="1" fill="#66B821"/>
<circle id="Ellipse 27_12" cx="71" cy="111" r="1" fill="#66B821"/>
<circle id="Ellipse 28_12" cx="81" cy="111" r="1" fill="#66B821"/>
<circle id="Ellipse 29_12" cx="91" cy="111" r="1" fill="#66B821"/>
<circle id="Ellipse 30_12" cx="101" cy="111" r="1" fill="#66B821"/>
<circle id="Ellipse 31_12" cx="111" cy="111" r="1" fill="#66B821"/>
<circle id="Ellipse 32_12" cx="121" cy="111" r="1" fill="#66B821"/>
<circle id="Ellipse 33_12" cx="131" cy="111" r="1" fill="#66B821"/>
<circle id="Ellipse 34_12" cx="141" cy="111" r="1" fill="#66B821"/>
<circle id="Ellipse 35_12" cx="151" cy="111" r="1" fill="#66B821"/>
<circle id="Ellipse 36_12" cx="161" cy="111" r="1" fill="#66B821"/>
<circle id="Ellipse 37_12" cx="171" cy="111" r="1" fill="#66B821"/>
<circle id="Ellipse 38_12" cx="181" cy="111" r="1" fill="#66B821"/>
<circle id="Ellipse 39_12" cx="191" cy="111" r="1" fill="#66B821"/>
<circle id="Ellipse 40_12" cx="201" cy="111" r="1" fill="#66B821"/>
<circle id="Ellipse 41_12" cx="211" cy="111" r="1" fill="#66B821"/>
<circle id="Ellipse 20_13" cx="1" cy="121" r="1" fill="#66B821"/>
<circle id="Ellipse 21_13" cx="11" cy="121" r="1" fill="#66B821"/>
<circle id="Ellipse 22_13" cx="21" cy="121" r="1" fill="#66B821"/>
<circle id="Ellipse 23_13" cx="31" cy="121" r="1" fill="#66B821"/>
<circle id="Ellipse 24_13" cx="41" cy="121" r="1" fill="#66B821"/>
<circle id="Ellipse 25_13" cx="51" cy="121" r="1" fill="#66B821"/>
<circle id="Ellipse 26_13" cx="61" cy="121" r="1" fill="#66B821"/>
<circle id="Ellipse 27_13" cx="71" cy="121" r="1" fill="#66B821"/>
<circle id="Ellipse 28_13" cx="81" cy="121" r="1" fill="#66B821"/>
<circle id="Ellipse 29_13" cx="91" cy="121" r="1" fill="#66B821"/>
<circle id="Ellipse 30_13" cx="101" cy="121" r="1" fill="#66B821"/>
<circle id="Ellipse 31_13" cx="111" cy="121" r="1" fill="#66B821"/>
<circle id="Ellipse 32_13" cx="121" cy="121" r="1" fill="#66B821"/>
<circle id="Ellipse 33_13" cx="131" cy="121" r="1" fill="#66B821"/>
<circle id="Ellipse 34_13" cx="141" cy="121" r="1" fill="#66B821"/>
<circle id="Ellipse 35_13" cx="151" cy="121" r="1" fill="#66B821"/>
<circle id="Ellipse 36_13" cx="161" cy="121" r="1" fill="#66B821"/>
<circle id="Ellipse 37_13" cx="171" cy="121" r="1" fill="#66B821"/>
<circle id="Ellipse 38_13" cx="181" cy="121" r="1" fill="#66B821"/>
<circle id="Ellipse 39_13" cx="191" cy="121" r="1" fill="#66B821"/>
<circle id="Ellipse 40_13" cx="201" cy="121" r="1" fill="#66B821"/>
<circle id="Ellipse 41_13" cx="211" cy="121" r="1" fill="#66B821"/>
<circle id="Ellipse 20_14" cx="1" cy="131" r="1" fill="#66B821"/>
<circle id="Ellipse 21_14" cx="11" cy="131" r="1" fill="#66B821"/>
<circle id="Ellipse 22_14" cx="21" cy="131" r="1" fill="#66B821"/>
<circle id="Ellipse 23_14" cx="31" cy="131" r="1" fill="#66B821"/>
<circle id="Ellipse 24_14" cx="41" cy="131" r="1" fill="#66B821"/>
<circle id="Ellipse 25_14" cx="51" cy="131" r="1" fill="#66B821"/>
<circle id="Ellipse 26_14" cx="61" cy="131" r="1" fill="#66B821"/>
<circle id="Ellipse 27_14" cx="71" cy="131" r="1" fill="#66B821"/>
<circle id="Ellipse 28_14" cx="81" cy="131" r="1" fill="#66B821"/>
<circle id="Ellipse 29_14" cx="91" cy="131" r="1" fill="#66B821"/>
<circle id="Ellipse 30_14" cx="101" cy="131" r="1" fill="#66B821"/>
<circle id="Ellipse 31_14" cx="111" cy="131" r="1" fill="#66B821"/>
<circle id="Ellipse 32_14" cx="121" cy="131" r="1" fill="#66B821"/>
<circle id="Ellipse 33_14" cx="131" cy="131" r="1" fill="#66B821"/>
<circle id="Ellipse 34_14" cx="141" cy="131" r="1" fill="#66B821"/>
<circle id="Ellipse 35_14" cx="151" cy="131" r="1" fill="#66B821"/>
<circle id="Ellipse 36_14" cx="161" cy="131" r="1" fill="#66B821"/>
<circle id="Ellipse 37_14" cx="171" cy="131" r="1" fill="#66B821"/>
<circle id="Ellipse 38_14" cx="181" cy="131" r="1" fill="#66B821"/>
<circle id="Ellipse 39_14" cx="191" cy="131" r="1" fill="#66B821"/>
<circle id="Ellipse 40_14" cx="201" cy="131" r="1" fill="#66B821"/>
<circle id="Ellipse 41_14" cx="211" cy="131" r="1" fill="#66B821"/>
<circle id="Ellipse 20_15" cx="1" cy="141" r="1" fill="#66B821"/>
<circle id="Ellipse 21_15" cx="11" cy="141" r="1" fill="#66B821"/>
<circle id="Ellipse 22_15" cx="21" cy="141" r="1" fill="#66B821"/>
<circle id="Ellipse 23_15" cx="31" cy="141" r="1" fill="#66B821"/>
<circle id="Ellipse 24_15" cx="41" cy="141" r="1" fill="#66B821"/>
<circle id="Ellipse 25_15" cx="51" cy="141" r="1" fill="#66B821"/>
<circle id="Ellipse 26_15" cx="61" cy="141" r="1" fill="#66B821"/>
<circle id="Ellipse 27_15" cx="71" cy="141" r="1" fill="#66B821"/>
<circle id="Ellipse 28_15" cx="81" cy="141" r="1" fill="#66B821"/>
<circle id="Ellipse 29_15" cx="91" cy="141" r="1" fill="#66B821"/>
<circle id="Ellipse 30_15" cx="101" cy="141" r="1" fill="#66B821"/>
<circle id="Ellipse 31_15" cx="111" cy="141" r="1" fill="#66B821"/>
<circle id="Ellipse 32_15" cx="121" cy="141" r="1" fill="#66B821"/>
<circle id="Ellipse 33_15" cx="131" cy="141" r="1" fill="#66B821"/>
<circle id="Ellipse 34_15" cx="141" cy="141" r="1" fill="#66B821"/>
<circle id="Ellipse 35_15" cx="151" cy="141" r="1" fill="#66B821"/>
<circle id="Ellipse 36_15" cx="161" cy="141" r="1" fill="#66B821"/>
<circle id="Ellipse 37_15" cx="171" cy="141" r="1" fill="#66B821"/>
<circle id="Ellipse 38_15" cx="181" cy="141" r="1" fill="#66B821"/>
<circle id="Ellipse 39_15" cx="191" cy="141" r="1" fill="#66B821"/>
<circle id="Ellipse 40_15" cx="201" cy="141" r="1" fill="#66B821"/>
<circle id="Ellipse 41_15" cx="211" cy="141" r="1" fill="#66B821"/>
<circle id="Ellipse 20_16" cx="1" cy="151" r="1" fill="#66B821"/>
<circle id="Ellipse 21_16" cx="11" cy="151" r="1" fill="#66B821"/>
<circle id="Ellipse 22_16" cx="21" cy="151" r="1" fill="#66B821"/>
<circle id="Ellipse 23_16" cx="31" cy="151" r="1" fill="#66B821"/>
<circle id="Ellipse 24_16" cx="41" cy="151" r="1" fill="#66B821"/>
<circle id="Ellipse 25_16" cx="51" cy="151" r="1" fill="#66B821"/>
<circle id="Ellipse 26_16" cx="61" cy="151" r="1" fill="#66B821"/>
<circle id="Ellipse 27_16" cx="71" cy="151" r="1" fill="#66B821"/>
<circle id="Ellipse 28_16" cx="81" cy="151" r="1" fill="#66B821"/>
<circle id="Ellipse 29_16" cx="91" cy="151" r="1" fill="#66B821"/>
<circle id="Ellipse 30_16" cx="101" cy="151" r="1" fill="#66B821"/>
<circle id="Ellipse 31_16" cx="111" cy="151" r="1" fill="#66B821"/>
<circle id="Ellipse 32_16" cx="121" cy="151" r="1" fill="#66B821"/>
<circle id="Ellipse 33_16" cx="131" cy="151" r="1" fill="#66B821"/>
<circle id="Ellipse 34_16" cx="141" cy="151" r="1" fill="#66B821"/>
<circle id="Ellipse 35_16" cx="151" cy="151" r="1" fill="#66B821"/>
<circle id="Ellipse 36_16" cx="161" cy="151" r="1" fill="#66B821"/>
<circle id="Ellipse 37_16" cx="171" cy="151" r="1" fill="#66B821"/>
<circle id="Ellipse 38_16" cx="181" cy="151" r="1" fill="#66B821"/>
<circle id="Ellipse 39_16" cx="191" cy="151" r="1" fill="#66B821"/>
<circle id="Ellipse 40_16" cx="201" cy="151" r="1" fill="#66B821"/>
<circle id="Ellipse 41_16" cx="211" cy="151" r="1" fill="#66B821"/>
</g>
</svg>
